<svg width="280" height="100" viewBox="0 0 280 100"
     xmlns="http://www.w3.org/2000/svg" fill="none">

  <defs>
    <linearGradient id="aiGradient" x1="0%" y1="0%" x2="100%" y2="100%">
      <stop offset="0%" style="stop-color:#A78BFA;stop-opacity:1" /> <stop offset="100%" style="stop-color:#4F46E5;stop-opacity:1" /> </linearGradient>
    <filter id="glow" x="-50%" y="-50%" width="200%" height="200%">
       <feGaussianBlur stdDeviation="1.5" result="coloredBlur"/>
       <feMerge>
           <feMergeNode in="coloredBlur"/>
           <feMergeNode in="SourceGraphic"/>
       </feMerge>
   </filter>
  </defs>

  <path d="M35 40 a 12 12 0 0 1 0 -24 h 5 a 8 8 0 0 1 8 8 a 8 8 0 0 1 8 -8 h 5 a 12 12 0 0 1 0 24 z"
        fill="#E0E7FF" /> <path d="M40 36 a 10 10 0 0 1 0 -20 h 5 a 6 6 0 0 1 6 6 a 6 6 0 0 1 6 -6 h 5 a 10 10 0 0 1 0 20 z"
        fill="#C7D2FE" /> <path d="M60 20 h70 a8 8 0 0 1 8 8 v10
           a12 12 0 1 0 0 24 v10 a8 8 0 0 1 -8 8 h-70
           a8 8 0 0 1 -8 -8 v-10
           a12 12 0 1 0 0 -24 v-10 a8 8 0 0 1 8 -8 z"
        fill="url(#aiGradient)" />

  <g stroke="#FFFFFF" stroke-width="1.5" stroke-linecap="round">
      <circle cx="95" cy="50" r="3" fill="#FFFFFF" filter="url(#glow)"/>
      <polyline points="75,40 95,40 95,60 115,60" />
      <polyline points="75,60 95,60" />
      <polyline points="115,40 95,40" />
  </g>

   <circle cx="60" cy="50" r="4" fill="#A5B4FC"/> <circle cx="60" cy="50" r="1.5" fill="#FFFFFF"/>

  <text x="155" y="62" font-family="Segoe UI, Helvetica, Arial, sans-serif"
        font-weight="600" font-size="38" fill="#FFFFFF">Snippy</text> <circle cx="255" cy="35" r="5" fill="#10B981" filter="url(#glow)"/>

</svg>
