<svg width="300" height="120" viewBox="0 0 300 120"
     xmlns="http://www.w3.org/2000/svg" fill="none">

  <defs>
    <linearGradient id="aiGradient" x1="0%" y1="0%" x2="100%" y2="100%">
      <stop offset="0%" style="stop-color:#A78BFA;stop-opacity:1" /> <stop offset="100%" style="stop-color:#4F46E5;stop-opacity:1" /> </linearGradient>
    <filter id="glow" x="-50%" y="-50%" width="200%" height="200%">
       <feGaussianBlur stdDeviation="2" result="coloredBlur"/>
       <feMerge>
           <feMergeNode in="coloredBlur"/>
           <feMergeNode in="SourceGraphic"/>
       </feMerge>
   </filter>
  </defs>

  <path d="M45 45 a 15 15 0 0 1 0 -30 h 5 a 10 10 0 0 1 10 10 a 10 10 0 0 1 10 -10 h 5 a 15 15 0 0 1 0 30 z"
        fill="#E0E7FF" /> <path d="M50 40 a 12 12 0 0 1 0 -24 h 5 a 8 8 0 0 1 8 8 a 8 8 0 0 1 8 -8 h 5 a 12 12 0 0 1 0 24 z"
        fill="#C7D2FE" /> <path d="M70 30 h80 a10 10 0 0 1 10 10 v12
           a14 14 0 1 0 0 24 v12 a10 10 0 0 1 -10 10 h-80
           a10 10 0 0 1 -10 -10 v-12
           a14 14 0 1 0 0 -24 v-12 a10 10 0 0 1 10 -10 z"
        fill="url(#aiGradient)" />

  <g stroke="#FFFFFF" stroke-width="2" stroke-linecap="round">
      <circle cx="110" cy="60" r="4" fill="#FFFFFF" filter="url(#glow)"/>
      <line x1="110" y1="60" x2="90" y2="45" />
      <line x1="110" y1="60" x2="90" y2="75" />
      <line x1="110" y1="60" x2="130" y2="45" />
      <line x1="110" y1="60" x2="130" y2="75" />
      <line x1="110" y1="60" x2="145" y2="60" />
  </g>
   <circle cx="70" cy="60" r="5" fill="#A5B4FC"/> <circle cx="70" cy="60" r="2" fill="#FFFFFF"/>

  <text x="180" y="75" font-family="Segoe UI, Helvetica, Arial, sans-serif"
        font-weight="700" font-size="46" fill="#111827">Snippy</text>

  <circle cx="280" cy="40" r="6" fill="#10B981" filter="url(#glow)"/>

</svg>